# Wavefront OBJ File

# Vertices
v 0.006744 0.024828 -0.021145
v 0.006744 0.024828 -0.124525
v 0.006744 -0.021626 -0.124525
v 0.006744 -0.021626 -0.021145
v -0.033486 0.048054 -0.021146
v -0.033486 0.048055 -0.136102
v -0.073716 0.024828 -0.021146
v -0.073716 0.024828 -0.124525
v -0.073717 -0.021626 -0.021146
v -0.073717 -0.021626 -0.124525
v -0.033486 -0.044852 -0.021146
v -0.033486 -0.044852 -0.136103
v -0.073717 -0.021626 -0.124525
v -0.073717 -0.021626 -0.021146
v 0.006744 -0.021626 -0.124525
v 0.006744 0.024828 -0.124525
v -0.073716 0.024828 -0.124525
v -0.073717 -0.021626 -0.124525
v 0.006744 0.024828 -0.021145
v 0.006744 -0.021626 -0.021145
v -0.033486 -0.044852 -0.021146
v -0.033486 0.048054 -0.021146
v -0.073716 0.024828 -0.021146
v -0.073717 -0.021626 -0.021146
v -0.033486 0.048055 -0.136102
v -0.033486 -0.044852 -0.136103
v 0.051842 -0.244789 0.066595
v 0.400526 -0.593472 0.066595
v 0.479623 -0.514375 0.005742
v 0.06425 -0.099001 0.005742
v 0.497887 -0.474106 -0.001397
v 0.104518 -0.080737 -0.001398
v 0.104518 -0.080737 -0.001398
v 0.497887 -0.474106 -0.001397
v 0.483687 -0.51031 0.026663
v 0.068314 -0.094936 0.026663
v 0.400526 -0.593472 0.066595
v 0.051842 -0.244789 0.066595
v 0.479623 -0.514375 0.005742
v 0.483687 -0.51031 0.026663
v 0.497887 -0.474106 -0.001397
v 0.400526 -0.593472 0.066595
v 0.068314 -0.094936 0.026663
v 0.051842 -0.244789 0.066595
v 0.06425 -0.099001 0.005742
v 0.104518 -0.080737 -0.001398
v -0.10957 0.120581 0.031065
v 0.085493 -0.07448 0.031065
v 0.064043 -0.09593 0.048578
v -0.131018 0.099132 0.048577
v -0.109569 0.120581 -0.003961
v 0.085493 -0.07448 -0.003961
v -0.131018 0.099132 -0.021474
v 0.064043 -0.09593 -0.021474
v 0.085493 -0.07448 -0.003961
v -0.109569 0.120581 -0.003961
v -0.152467 0.077683 -0.003962
v 0.042594 -0.117378 -0.003962
v -0.152467 0.077683 0.031065
v 0.042594 -0.117379 0.031065
v 0.085493 -0.07448 -0.003961
v 0.064043 -0.09593 -0.021474
v 0.042594 -0.117378 -0.003962
v 0.085493 -0.07448 0.031065
v 0.064043 -0.09593 0.048578
v 0.042594 -0.117379 0.031065
v -0.131018 0.099132 -0.021474
v -0.109569 0.120581 -0.003961
v -0.10957 0.120581 0.031065
v -0.152467 0.077683 -0.003962
v -0.152467 0.077683 0.031065
v -0.131018 0.099132 0.048577
v -0.118816 0.24799 0.066595
v -0.4675 0.596675 0.066595
v -0.546596 0.517577 0.005743
v -0.131223 0.102204 0.005743
v -0.564861 0.477308 -0.001398
v -0.171492 0.08394 -0.001398
v -0.171492 0.08394 -0.001398
v -0.564861 0.477308 -0.001398
v -0.550662 0.513512 0.026662
v -0.135288 0.098139 0.026662
v -0.4675 0.596675 0.066595
v -0.118816 0.24799 0.066595
v -0.546596 0.517577 0.005743
v -0.550662 0.513512 0.026662
v -0.564861 0.477308 -0.001398
v -0.4675 0.596675 0.066595
v -0.135288 0.098139 0.026662
v -0.118816 0.24799 0.066595
v -0.131223 0.102204 0.005743
v -0.171492 0.08394 -0.001398
v -0.033486 -0.044852 -0.021146
v -0.131018 0.099132 -0.021474
v 0.011384 0.024873 -0.00573
v 0.011384 0.024872 -0.10911
v -0.021464 -0.007975 -0.10911
v -0.021464 -0.007975 -0.005729
v -0.000639 0.069743 -0.005731
v -0.000639 0.069743 -0.120687
v -0.04551 0.081766 -0.005731
v -0.04551 0.081766 -0.10911
v -0.078358 0.04892 -0.005731
v -0.078358 0.048919 -0.10911
v -0.066334 0.004048 -0.005731
v -0.066334 0.004048 -0.120687
v -0.078358 0.048919 -0.10911
v -0.078358 0.04892 -0.005731
v -0.021464 -0.007975 -0.10911
v 0.011384 0.024872 -0.10911
v -0.04551 0.081766 -0.10911
v -0.078358 0.048919 -0.10911
v 0.011384 0.024873 -0.00573
v -0.021464 -0.007975 -0.005729
v -0.066334 0.004048 -0.005731
v -0.000639 0.069743 -0.005731
v -0.04551 0.081766 -0.005731
v -0.078358 0.04892 -0.005731
v -0.000639 0.069743 -0.120687
v -0.066334 0.004048 -0.120687
v 0.730333 0.766007 -0.000719
v -0.730667 0.766007 -0.000719
v -0.730667 -0.695418 -0.000719
v 0.730332 -0.695418 -0.000719
v 0.730333 0.766007 0.004281
v 0.730333 -0.695419 0.004281
v -0.730667 -0.695418 0.00428
v -0.730667 0.766008 0.004281
v 0.730333 -0.695419 0.004281
v 0.730332 -0.695418 -0.000719
v -0.730667 -0.695418 -0.000719
v -0.730667 -0.695418 0.00428
v 0.730333 0.766007 0.004281
v 0.730333 0.766007 -0.000719
v 0.730332 -0.695418 -0.000719
v 0.730333 -0.695419 0.004281
v -0.730667 0.766008 0.004281
v -0.730667 0.766007 -0.000719
v 0.730333 0.766007 -0.000719
v 0.730333 0.766007 0.004281
v -0.730667 -0.695418 0.00428
v -0.730667 -0.695418 -0.000719
v -0.730667 0.766007 -0.000719
v -0.730667 0.766008 0.004281
v 0.730333 0.766007 -0.000719
v -0.066334 0.004048 -0.005731

# Texture Coordinates
vt 0.699918 0.2621
vt 0.684739 0.2621
vt 0.684739 0.268678
vt 0.699918 0.268678
vt 0.699918 0.256404
vt 0.684728 0.256404
vt 0.699918 0.250709
vt 0.684739 0.250709
vt 0.699918 0.244132
vt 0.684739 0.244132
vt 0.699918 0.274374
vt 0.684728 0.274373
vt 0.684739 0.278776
vt 0.69989 0.278776
vt 0.684739 0.268678
vt 0.684739 0.2621
vt 0.673347 0.2621
vt 0.673347 0.268678
vt 0.699918 0.2621
vt 0.699918 0.268678
vt 0.705614 0.271966
vt 0.705614 0.258812
vt 0.71131 0.2621
vt 0.71131 0.268678
vt 0.679043 0.258812
vt 0.679043 0.271966
vt 0.501867 0.769984
vt 0.572268 0.770462
vt 0.572382 0.755298
vt 0.488515 0.754729
vt 0.570202 0.749671
vt 0.490779 0.749133
vt 0.490467 0.790684
vt 0.56989 0.791223
vt 0.572147 0.786406
vt 0.488282 0.785838
vt 0.572268 0.770462
vt 0.501867 0.769984
vt 0.576227 0.786822
vt 0.572147 0.786406
vt 0.56989 0.791223
vt 0.572268 0.770462
vt 0.488282 0.785838
vt 0.501867 0.769984
vt 0.48386 0.785813
vt 0.490467 0.790684
vt 0.305221 0.553714
vt 0.349041 0.553714
vt 0.349041 0.560507
vt 0.305221 0.560507
vt 0.305286 0.545868
vt 0.348975 0.545868
vt 0.305221 0.58194
vt 0.349041 0.58194
vt 0.349041 0.588735
vt 0.305221 0.588735
vt 0.305287 0.575147
vt 0.348975 0.575147
vt 0.305287 0.567301
vt 0.348975 0.567301
vt 0.348975 0.545868
vt 0.353746 0.541906
vt 0.358583 0.545789
vt 0.349041 0.553714
vt 0.353878 0.557596
vt 0.358648 0.553633
vt 0.300483 0.541947
vt 0.305286 0.545868
vt 0.305221 0.553714
vt 0.295679 0.545868
vt 0.295679 0.553714
vt 0.300483 0.557636
vt 0.501836 0.770008
vt 0.572237 0.770486
vt 0.572351 0.755321
vt 0.488484 0.754752
vt 0.570171 0.749695
vt 0.490749 0.749157
vt 0.490435 0.790707
vt 0.569859 0.791247
vt 0.572117 0.78643
vt 0.488251 0.785861
vt 0.572237 0.770486
vt 0.501836 0.770008
vt 0.576216 0.786876
vt 0.572117 0.78643
vt 0.569859 0.791247
vt 0.572237 0.770486
vt 0.488251 0.785861
vt 0.501836 0.770008
vt 0.483828 0.785837
vt 0.490435 0.790707
vt 0.699918 0.274374
vt 0.305221 0.58194
vt 0.699918 0.2621
vt 0.684739 0.2621
vt 0.684739 0.268678
vt 0.699918 0.268678
vt 0.699918 0.256404
vt 0.684728 0.256404
vt 0.699918 0.250709
vt 0.684739 0.250709
vt 0.699918 0.244132
vt 0.684739 0.244132
vt 0.699918 0.274374
vt 0.684728 0.274373
vt 0.684739 0.278776
vt 0.69989 0.278776
vt 0.684739 0.268678
vt 0.684739 0.2621
vt 0.673347 0.2621
vt 0.673347 0.268678
vt 0.699918 0.2621
vt 0.699918 0.268678
vt 0.705614 0.271966
vt 0.705614 0.258812
vt 0.71131 0.2621
vt 0.71131 0.268678
vt 0.679043 0.258812
vt 0.679043 0.271966
vt 0 1
vt 1 1
vt 1 0
vt 0 0
vt 1 1
vt 1 0
vt 0 0
vt 0 1
vt 1 1
vt 1 0
vt 0 0
vt 0 1
vt 1 1
vt 1 0
vt 0 0
vt 0 1
vt 1 1
vt 1 0
vt 0 0
vt 0 1
vt 1 1
vt 1 0
vt 0 0
vt 0 1
vt 0 0
vt 0.699918 0.274374

# Vertex Normals
vn 0.944911 0.327328 0
vn 0.755928 0.654655 0.000002
vn 0.944911 -0.327329 -0.000001
vn 0.755925 -0.654658 -0.000001
vn 0.188982 0.981981 0.000003
vn -0.188982 0.981981 0.000003
vn -0.755926 0.654657 0.000001
vn -0.944908 0.327335 -0.000001
vn -0.944914 -0.32732 -0.000001
vn -0.755926 -0.654657 -0.000001
vn -0.188977 -0.981981 0
vn 0.18898 -0.981981 -0.000001
vn -0.755926 -0.654657 -0.000001
vn -0.944914 -0.32732 -0.000001
vn 0 0.152306 -0.988333
vn 0 -0.22915 -0.973391
vn 0 -0.152299 -0.988334
vn 0 0.229161 -0.973388
vn -0.000024 0.000008 1
vn -0.000024 0.000008 1
vn -0.000024 0.000008 1
vn -0.00001 0 1
vn -0.00001 0 1
vn 0.000005 0.000008 1
vn 0.000001 -0.446106 -0.89498
vn 0 0.446126 -0.89497
vn -0.337905 -0.337905 -0.878431
vn -0.337905 -0.337905 -0.87843
vn -0.268523 -0.268523 -0.925089
vn -0.195084 -0.195085 -0.961189
vn -0.120199 -0.120201 -0.985446
vn -0.120206 -0.120208 -0.985444
vn 0.43741 0.437411 0.785713
vn 0.437407 0.437409 0.785715
vn 0.37214 0.372142 0.850307
vn 0.301212 0.301213 0.904733
vn 0.22734 0.227341 0.946907
vn 0.227341 0.227341 0.946907
vn 0.816761 -0.575064 -0.046937
vn 0.816761 -0.575064 -0.046937
vn 0.900549 -0.42482 -0.092405
vn 0.707113 -0.707101 0.000018
vn -0.799345 0.59962 0.038778
vn -0.975595 0.149976 0.160382
vn -0.799345 0.59962 0.038778
vn -0.424832 0.90054 -0.092444
vn 0.534514 0.534516 0.654666
vn 0.66815 0.668152 0.327337
vn 0.133623 0.133625 0.981982
vn -0.133631 -0.13363 0.981981
vn 0.668154 0.668155 -0.32732
vn 0.534521 0.534521 -0.654656
vn 0.133632 0.133632 -0.98198
vn -0.133623 -0.133623 -0.981983
vn 0.534521 0.534521 -0.654656
vn 0.668154 0.668155 -0.32732
vn -0.534516 -0.534516 -0.654664
vn -0.668151 -0.668151 -0.327334
vn -0.668153 -0.668153 0.327328
vn -0.534521 -0.53452 0.654658
vn 0.707104 -0.70711 0
vn 0.707104 -0.70711 0
vn 0.707104 -0.70711 0
vn 0.707104 -0.70711 -0.000002
vn 0.707103 -0.707111 0
vn 0.707109 -0.707104 -0.000005
vn -0.707094 0.707119 -0.000009
vn -0.707094 0.707119 -0.000009
vn -0.707094 0.707119 -0.000009
vn -0.707113 0.707101 0.000007
vn -0.707114 0.7071 0.000008
vn -0.707114 0.7071 -0.000017
vn 0.337903 0.337903 -0.878432
vn 0.337903 0.337902 -0.878433
vn 0.268532 0.268532 -0.925085
vn 0.195098 0.195099 -0.961183
vn 0.12022 0.120221 -0.985441
vn 0.120218 0.120218 -0.985442
vn -0.437412 -0.437412 0.785711
vn -0.437412 -0.437412 0.78571
vn -0.372144 -0.372144 0.850305
vn -0.301215 -0.301215 0.904732
vn -0.227345 -0.227344 0.946905
vn -0.227344 -0.227344 0.946905
vn -0.81675 0.575076 -0.046975
vn -0.81675 0.575076 -0.046975
vn -0.900535 0.424841 -0.092455
vn -0.707108 0.707105 -0.000009
vn 0.799343 -0.599622 0.038783
vn 0.975591 -0.149982 0.160396
vn 0.799343 -0.599622 0.038783
vn 0.424834 -0.900538 -0.09245
vn -0.188977 -0.981981 0
vn 0.133632 0.133632 -0.98198
vn 0.89961 -0.436695 0.000004
vn 0.997432 -0.071613 0.000004
vn 0.4367 -0.899607 0.000003
vn 0.07161 -0.997433 0
vn 0.827997 0.560732 0.000003
vn 0.560737 0.827994 0.000002
vn -0.071604 0.997433 0
vn -0.436687 0.899613 -0.000001
vn -0.899605 0.436705 -0.000001
vn -0.997433 0.071608 0
vn -0.827992 -0.560741 0
vn -0.560735 -0.827995 0
vn -0.997433 0.071608 0
vn -0.899605 0.436705 -0.000001
vn 0.107694 0.107694 -0.988334
vn -0.162031 -0.162031 -0.973392
vn -0.107689 -0.107689 -0.988335
vn 0.162037 0.162037 -0.97339
vn -0.000018 0.00003 1
vn -0.000018 0.00003 1
vn -0.000018 0.00003 1
vn -0.000014 0.000014 1
vn -0.000007 0.000007 1
vn 0.000009 0.000002 1
vn -0.315439 -0.315439 -0.894984
vn 0.315451 0.315451 -0.894976
vn 0 0 -1
vn 0 0 -1
vn 0 0 -1
vn 0 0 -1
vn 0 0 1
vn 0 0 1
vn 0 0 1
vn 0 0 1
vn 0 -1 -0.00006
vn 0 -1 -0.000095
vn 0 -1 -0.00006
vn 0 -1 -0.000024
vn 1 0 -0.000054
vn 1 -0.000001 -0.000024
vn 1 0 -0.000054
vn 1 0 -0.000083
vn 0 1 -0.000042
vn 0 1 -0.000083
vn 0 1 -0.000042
vn 0 1 0
vn -1 0 0.000012
vn -1 0 0.000012
vn -1 0 0.000012
vn -1 0 0.000012
vn 0 1 -0.000042
vn -0.827992 -0.560741 0

# Geom 0

# Lod 0
o GEOM0-LOD0
g GEOM0-LOD0
usemtl Material_0
f 3/3/3 2/2/2 1/1/1
f 1/1/1 4/4/4 3/3/3
f 2/2/2 6/6/6 5/5/5
f 5/5/5 1/1/1 2/2/2
f 6/6/6 8/8/8 7/7/7
f 7/7/7 5/5/5 6/6/6
f 8/8/8 10/10/10 9/9/9
f 9/9/9 7/7/7 8/8/8
f 13/13/13 12/12/12 11/11/11
f 11/11/11 14/14/14 13/13/13
f 12/12/12 3/3/3 4/4/4
f 4/4/4 93/93/93 12/12/12
f 17/17/17 16/16/16 15/15/15
f 15/15/15 18/18/18 17/17/17
f 21/21/21 20/20/20 19/19/19
f 21/21/21 19/19/19 22/22/22
f 21/21/21 22/22/22 23/23/23
f 21/21/21 23/23/23 24/24/24
f 17/17/17 25/25/25 16/16/16
f 15/15/15 26/26/26 18/18/18
f 29/29/29 28/28/28 27/27/27
f 27/27/27 30/30/30 29/29/29
f 31/31/31 29/29/29 30/30/30
f 30/30/30 32/32/32 31/31/31
f 35/35/35 34/34/34 33/33/33
f 33/33/33 36/36/36 35/35/35
f 37/37/37 35/35/35 36/36/36
f 36/36/36 38/38/38 37/37/37
f 41/41/41 40/40/40 39/39/39
f 42/42/42 39/39/39 40/40/40
f 45/45/45 44/44/44 43/43/43
f 46/46/46 45/45/45 43/43/43
f 49/49/49 48/48/48 47/47/47
f 47/47/47 50/50/50 49/49/49
f 48/48/48 52/52/52 51/51/51
f 51/51/51 47/47/47 48/48/48
f 55/55/55 54/54/54 53/53/53
f 53/53/53 56/56/56 55/55/55
f 54/54/54 58/58/58 57/57/57
f 57/57/57 94/94/94 54/54/54
f 58/58/58 60/60/60 59/59/59
f 59/59/59 57/57/57 58/58/58
f 60/60/60 49/49/49 50/50/50
f 50/50/50 59/59/59 60/60/60
f 63/63/63 62/62/62 61/61/61
f 63/63/63 61/61/61 64/64/64
f 63/63/63 64/64/64 65/65/65
f 63/63/63 65/65/65 66/66/66
f 69/69/69 68/68/68 67/67/67
f 69/69/69 67/67/67 70/70/70
f 69/69/69 70/70/70 71/71/71
f 69/69/69 71/71/71 72/72/72
f 75/75/75 74/74/74 73/73/73
f 73/73/73 76/76/76 75/75/75
f 77/77/77 75/75/75 76/76/76
f 76/76/76 78/78/78 77/77/77
f 81/81/81 80/80/80 79/79/79
f 79/79/79 82/82/82 81/81/81
f 83/83/83 81/81/81 82/82/82
f 82/82/82 84/84/84 83/83/83
f 87/87/87 86/86/86 85/85/85
f 88/88/88 85/85/85 86/86/86
f 91/91/91 90/90/90 89/89/89
f 92/92/92 91/91/91 89/89/89


# Geom 1

# Lod 0
o GEOM1-LOD0
g GEOM1-LOD0
usemtl Material_0
f 135/135/135 134/134/134 133/133/133
f 133/133/133 136/136/136 135/135/135
f 111/111/111 119/119/119 110/110/110
f 121/121/121 124/124/124 123/123/123
f 111/111/111 110/110/110 109/109/109
f 131/131/131 130/130/130 129/129/129
f 137/137/137 140/140/140 145/145/145
f 127/127/127 126/126/126 125/125/125
f 109/109/109 120/120/120 112/112/112
f 109/109/109 112/112/112 111/111/111
f 96/96/96 100/100/100 99/99/99
f 97/97/97 96/96/96 95/95/95
f 100/100/100 102/102/102 101/101/101
f 106/106/106 97/97/97 98/98/98
f 107/107/107 106/106/106 105/105/105
f 102/102/102 104/104/104 103/103/103
f 99/99/99 95/95/95 96/96/96
f 101/101/101 99/99/99 100/100/100
f 95/95/95 98/98/98 97/97/97
f 98/98/98 146/146/146 106/106/106
f 103/103/103 101/101/101 102/102/102
f 105/105/105 108/108/108 107/107/107
f 115/115/115 113/113/113 116/116/116
f 115/115/115 114/114/114 113/113/113
f 115/115/115 116/116/116 117/117/117
f 115/115/115 117/117/117 118/118/118
f 123/123/123 122/122/122 121/121/121
f 145/145/145 138/138/138 137/137/137
f 129/129/129 132/132/132 131/131/131
f 125/125/125 128/128/128 127/127/127
f 143/143/143 142/142/142 141/141/141
f 141/141/141 144/144/144 143/143/143


# End of file
