# Wavefront OBJ File

# Vertices
v 1.099998 0 -1.8
v 8.742229 0 1.8
v 1.099998 0 1.8
v 8.742229 0 -1.8
v -8.771865 0 8.793527
v 9 0 9
v -9 0 9
v 8.742229 0 8.793527
v -8.771865 0 -8.784239
v -9 0 -5.4
v -9 0 -9
v -8.771865 0 -5.4
v -0.5 0 1.8
v 3.5 0 2
v -3.5 0 2
v 0.5 0 1.8
v 3.5 0 -3.5
v 4 0 -2
v 3.5 0 -2
v 3.5 0 -4
v 4 0 -4
v 2 0 -4
v 2 0 -3.5
v -2 0 3.5
v 2 0 3.5
v -4 0 -4
v -3.5 0 -2
v -4 0 -2
v -3.5 0 -3.5
v -3.5 0 -4
v 2 0 3.5
v 3.5 0 4
v 2 0 4
v 3.5 0 3.5
v 3.5 0 -3.5
v 3.5 0 -2
v 2 0 -3.5
v -8.771865 0 -1.8
v -9 0 1.8
v -9 0 -1.8
v -8.771865 0 1.8
v 0.5 0 -0.3
v -0.5 0 -0.3
v -0.5 0 -1.8
v -1.099998 0 1.8
v -0.5 0 0.3
v -0.5 0 1.8
v -1.099998 0 -1.8
v -0.5 0 -0.3
v -0.5 0 -1.8
v 0.5 0 -0.3
v -0.5 0 0.3
v -0.5 0 -0.3
v 0.5 0 0.3
v 0.5 0 0.3
v -0.5 0 1.8
v -0.5 0 0.3
v -3.5 0 -4
v -2 0 -3.5
v -3.5 0 -3.5
v -2 0 -4
v -2 0 -4
v -2 0 -3.5
v 2 0 -4
v 4 0 4
v 4 0 2
v 3.5 0 2
v 2 0 4
v -3.5 0 3.5
v -2 0 4
v -3.5 0 4
v -2 0 3.5
v -4 0 2
v -3.5 0 4
v -4 0 4
v -3.5 0 3.5
v -3.5 0 2
v 0.5 0 1.8
v 1.099998 0 -1.8
v 1.099998 0 1.8
v 0.5 0 0.3
v 0.5 0 -0.3
v 0.5 0 -1.8
v -9 0 1.8
v -8.771865 0 5.4
v -9 0 5.4
v -8.771865 0 1.8
v 1.099998 0 1.8
v 4 0 2
v -1.099998 0 1.8
v -4 0 2
v 0.5 0 1.8
v 0.5 0 -1.8
v -1.099998 0 -1.8
v -3.5 0 -2
v -0.5 0 -1.8
v -4 0 -2
v 1.099998 0 -1.8
v 4 0 -2
v 0.5 0 -1.8
v -3.5 0 -3.5
v 8.742229 0 -1.8
v -8.771865 0 -1.8
v 8.742229 0 -5.4
v 4 0 -4
v -8.771865 0 -5.4
v 3.5 0 -4
v -3.5 0 -4
v -4 0 -4
v -3.5 0 3.5
v 3.5 0 3.5
v -2 0 4
v 9 0 -1.8
v 8.742229 0 1.8
v 8.742229 0 -1.8
v 9 0 1.8
v 8.742229 0 8.793527
v 9 0 5.4
v 9 0 9
v 8.742229 0 5.4
v 9 0 1.8
v 8.742229 0 5.4
v 8.742229 0 1.8
v 9 0 5.4
v 9 0 -5.4
v 8.742229 0 -1.8
v 8.742229 0 -5.4
v 9 0 -1.8
v 8.742229 0 5.4
v -8.771865 0 8.793527
v -8.771865 0 5.4
v 8.742229 0 8.793527
v -1.099998 0 -1.8
v -8.771865 0 1.8
v -8.771865 0 -1.8
v -1.099998 0 1.8
v 8.742229 0 1.8
v -8.771865 0 1.8
v -8.771865 0 5.4
v -4 0 4
v 8.742229 0 5.4
v -3.5 0 4
v 3.5 0 4
v 4 0 4
v -9 0 -1.8
v -8.771865 0 -5.4
v -8.771865 0 -1.8
v -9 0 -5.4
v 8.742229 0 -5.4
v -8.771865 0 -8.784239
v 8.742229 0 -8.784239
v -8.771865 0 -5.4
v 9 0 -5.4
v 8.742229 0 -8.784239
v 9 0 -9
v 8.742229 0 -5.4
v -9 0 5.4
v -8.771865 0 8.793527
v -9 0 9
v -8.771865 0 5.4
v 8.742229 0 -8.784239
v -9 0 -9
v 9 0 -9
v -8.771865 0 -8.784239
v 8.742229 0 -8.784239
v 8.742229 0 8.793527
v 4 0 2
v 3.5 0 2
v 3.5 0 2
v 2 0 3.5
v 2 0 3.5
v 1.099998 0 1.8
v 0.5 0 -0.3
v -0.5 0 -1.8
v -0.5 0 -1.8
v -3.5 0 2

# Texture Coordinates
vt 0.312555 0.57018
vt 0.273928 0.490913
vt 0.273928 0.57018
vt 0.312555 0.490913
vt 0.02762 0.073508
vt 1.000156 0.064969
vt 0.000156 0.064969
vt 1.000625 0.073508
vt 0.98817 0.06533
vt 0.814946 0.074765
vt 1.014946 0.074765
vt 0.800156 0.06533
vt 0.273928 0.587413
vt 0.271782 0.544331
vt 0.271782 0.619724
vt 0.273928 0.576642
vt 0.890026 0.864771
vt 0.916399 0.87246
vt 0.916399 0.86477
vt 0.881235 0.864771
vt 0.881235 0.87246
vt 0.881235 0.841704
vt 0.890026 0.841704
vt 0.255688 0.603568
vt 0.255688 0.560487
vt 0.846129 0.850764
vt 0.871026 0.865465
vt 0.871026 0.850764
vt 0.852353 0.865465
vt 0.846129 0.865465
vt 0.833314 0.855099
vt 0.859732 0.842123
vt 0.833314 0.842416
vt 0.859732 0.855392
vt 0.330796 0.544331
vt 0.314701 0.544331
vt 0.330796 0.560487
vt 0.600156 0.06533
vt 0.414946 0.074765
vt 0.614946 0.074765
vt 0.400156 0.06533
vt 0.296461 0.576642
vt 0.296461 0.587413
vt 0.312555 0.587413
vt 0.872387 0.841553
vt 0.887228 0.854503
vt 0.887228 0.841553
vt 0.872387 0.872633
vt 0.887228 0.859683
vt 0.887228 0.872633
vt 0.908597 0.850432
vt 0.890616 0.869824
vt 0.890616 0.851157
vt 0.908597 0.8691
vt 0.290023 0.576642
vt 0.273928 0.587413
vt 0.290023 0.587413
vt 0.947832 0.872277
vt 0.854651 0.844178
vt 0.947832 0.844178
vt 0.854651 0.872277
vt 0.336161 0.603568
vt 0.330796 0.603568
vt 0.336161 0.560487
vt 0.872605 0.84183
vt 0.872605 0.873444
vt 0.859732 0.873444
vt 0.250323 0.560487
vt 0.855815 0.87247
vt 0.9635 0.842825
vt 0.855815 0.842825
vt 0.9635 0.87247
vt 0.915944 0.846665
vt 0.82287 0.866064
vt 0.82287 0.847002
vt 0.846139 0.865727
vt 0.915944 0.865727
vt 0.9186 0.849575
vt 0.986557 0.862327
vt 0.918947 0.862181
vt 0.946789 0.849575
vt 0.958065 0.849694
vt 0.986254 0.849694
vt 0.414946 0.074765
vt 0.200156 0.06533
vt 0.214946 0.074765
vt 0.400156 0.06533
vt 0.273928 0.57018
vt 0.271782 0.538946
vt 0.273928 0.593875
vt 0.271782 0.625109
vt 0.273928 0.576642
vt 0.312555 0.576642
vt 0.312555 0.593875
vt 0.314701 0.619724
vt 0.312555 0.587413
vt 0.314701 0.625109
vt 0.312555 0.57018
vt 0.314701 0.538946
vt 0.312555 0.576642
vt 0.330796 0.619724
vt 0.312555 0.490913
vt 0.312555 0.673461
vt 0.351182 0.490913
vt 0.336161 0.538946
vt 0.351182 0.673461
vt 0.336161 0.544331
vt 0.336161 0.619724
vt 0.336161 0.625109
vt 0.255688 0.619724
vt 0.255688 0.544331
vt 0.250323 0.603568
vt 0.600156 0.064968
vt 0.414946 0.075629
vt 0.614946 0.075629
vt 0.400156 0.064969
vt 0.026417 0.07563
vt 0.200157 0.064969
vt 0.000157 0.064969
vt 0.214946 0.075629
vt 0.400156 0.064969
vt 0.214946 0.075629
vt 0.414946 0.075629
vt 0.200157 0.064969
vt 0.800156 0.064968
vt 0.614946 0.075629
vt 0.814946 0.075629
vt 0.600156 0.064968
vt 0.235301 0.490913
vt 0.201954 0.673461
vt 0.235301 0.673461
vt 0.201954 0.490913
vt 0.312555 0.593875
vt 0.273928 0.673461
vt 0.312555 0.673461
vt 0.273928 0.593875
vt 0.273928 0.490913
vt 0.273928 0.673461
vt 0.235301 0.673461
vt 0.250323 0.625109
vt 0.235301 0.490913
vt 0.250323 0.619724
vt 0.250323 0.544331
vt 0.250323 0.538946
vt 0.614946 0.074765
vt 0.800156 0.06533
vt 0.600156 0.06533
vt 0.814946 0.074765
vt 0.351182 0.490913
vt 0.38443 0.673461
vt 0.38443 0.490913
vt 0.351182 0.673461
vt 0.800156 0.064968
vt 1.002959 0.075629
vt 1.000156 0.064969
vt 0.814946 0.075629
vt 0.214946 0.074765
vt 0.011627 0.06533
vt 0.014946 0.074765
vt 0.200156 0.06533
vt 0.985835 0.065842
vt 0.014946 0.074765
vt 1.014946 0.074765
vt 0.01283 0.065842
vt 0.985835 0.065842
vt 0.201954 0.490913
vt 0.271782 0.538946
vt 0.271782 0.544331
vt 0.271782 0.544331
vt 0.255688 0.560487
vt 0.255688 0.560487
vt 0.273928 0.57018
vt 0.296461 0.576642
vt 0.312555 0.587413
vt 0.312555 0.587413
vt 0.271782 0.619724

# Vertex Normals
vn 0 1 0
vn 0 1 0
vn 0 1 0
vn 0 1 0
vn 0 1 0
vn 0 1 0
vn 0 1 0
vn 0 1 0
vn 0 1 0
vn 0 1 0
vn 0 1 0
vn 0 1 0
vn 0 1 0
vn 0 1 0
vn 0 1 0
vn 0 1 0
vn 0 1 0
vn 0 1 0
vn 0 1 0
vn 0 1 0
vn 0 1 0
vn 0 1 0
vn 0 1 0
vn 0 1 0
vn 0 1 0
vn 0 1 0
vn 0 1 0
vn 0 1 0
vn 0 1 0
vn 0 1 0
vn 0 1 0
vn 0 1 0
vn 0 1 0
vn 0 1 0
vn 0 1 0
vn 0 1 0
vn 0 1 0
vn 0 1 0
vn 0 1 0
vn 0 1 0
vn 0 1 0
vn 0 1 0
vn 0 1 0
vn 0 1 0
vn 0 1 0
vn 0 1 0
vn 0 1 0
vn 0 1 0
vn 0 1 0
vn 0 1 0
vn 0 1 0
vn 0 1 0
vn 0 1 0
vn 0 1 0
vn 0 1 0
vn 0 1 0
vn 0 1 0
vn 0 1 0
vn 0 1 0
vn 0 1 0
vn 0 1 0
vn 0 1 0
vn 0 1 0
vn 0 1 0
vn 0 1 0
vn 0 1 0
vn 0 1 0
vn 0 1 0
vn 0 1 0
vn 0 1 0
vn 0 1 0
vn 0 1 0
vn 0 1 0
vn 0 1 0
vn 0 1 0
vn 0 1 0
vn 0 1 0
vn 0 1 0
vn 0 1 0
vn 0 1 0
vn 0 1 0
vn 0 1 0
vn 0 1 0
vn 0 1 0
vn 0 1 0
vn 0 1 0
vn 0 1 0
vn 0 1 0
vn 0 1 0
vn 0 1 0
vn 0 1 0
vn 0 1 0
vn 0 1 0
vn 0 1 0
vn 0 1 0
vn 0 1 0
vn 0 1 0
vn 0 1 0
vn 0 1 0
vn 0 1 0
vn 0 1 0
vn 0 1 0
vn 0 1 0
vn 0 1 0
vn 0 1 0
vn 0 1 0
vn 0 1 0
vn 0 1 0
vn 0 1 0
vn 0 1 0
vn 0 1 0
vn 0 1 0
vn 0 1 0
vn 0 1 0
vn 0 1 0
vn 0 1 0
vn 0 1 0
vn 0 1 0
vn 0 1 0
vn 0 1 0
vn 0 1 0
vn 0 1 0
vn 0 1 0
vn 0 1 0
vn 0 1 0
vn 0 1 0
vn 0 1 0
vn 0 1 0
vn 0 1 0
vn 0 1 0
vn 0 1 0
vn 0 1 0
vn 0 1 0
vn 0 1 0
vn 0 1 0
vn 0 1 0
vn 0 1 0
vn 0 1 0
vn 0 1 0
vn 0 1 0
vn 0 1 0
vn 0 1 0
vn 0 1 0
vn 0 1 0
vn 0 1 0
vn 0 1 0
vn 0 1 0
vn 0 1 0
vn 0 1 0
vn 0 1 0
vn 0 1 0
vn 0 1 0
vn 0 1 0
vn 0 1 0
vn 0 1 0
vn 0 1 0
vn 0 1 0
vn 0 1 0
vn 0 1 0
vn 0 1 0
vn 0 1 0
vn 0 1 0
vn 0 1 0
vn 0 1 0
vn 0 1 0
vn 0 1 0
vn 0 1 0
vn 0 1 0
vn 0 1 0
vn 0 1 0
vn 0 1 0
vn 0 1 0
vn 0 1 0
vn 0 1 0
vn 0 1 0
vn 0 1 0

# Geom 0

# Lod 0
o GEOM0-LOD0
g GEOM0-LOD0
usemtl Material_0
f 162/162/162 164/164/164 165/165/165
f 163/163/163 162/162/162 165/165/165
f 154/154/154 156/156/156 153/153/153
f 155/155/155 154/154/154 153/153/153
f 150/150/150 152/152/152 149/149/149
f 151/151/151 150/150/150 149/149/149
f 146/146/146 148/148/148 145/145/145
f 147/147/147 146/146/146 145/145/145
f 137/137/137 167/167/167 144/144/144
f 141/141/141 137/137/137 144/144/144
f 143/143/143 141/141/141 144/144/144
f 68/68/68 141/141/141 143/143/143
f 112/112/112 141/141/141 68/68/68
f 142/142/142 141/141/141 112/112/112
f 140/140/140 141/141/141 142/142/142
f 139/139/139 141/141/141 140/140/140
f 91/91/91 139/139/139 140/140/140
f 138/138/138 139/139/139 91/91/91
f 90/90/90 138/138/138 91/91/91
f 172/172/172 167/167/167 137/137/137
f 134/134/134 136/136/136 133/133/133
f 135/135/135 134/134/134 133/133/133
f 130/130/130 166/166/166 129/129/129
f 131/131/131 130/130/130 129/129/129
f 126/126/126 128/128/128 125/125/125
f 127/127/127 126/126/126 125/125/125
f 122/122/122 124/124/124 121/121/121
f 123/123/123 122/122/122 121/121/121
f 120/120/120 117/117/117 118/118/118
f 119/119/119 118/118/118 117/117/117
f 114/114/114 116/116/116 113/113/113
f 115/115/115 114/114/114 113/113/113
f 112/112/112 68/68/68 24/24/24
f 176/176/176 171/171/171 169/169/169
f 169/169/169 171/171/171 111/111/111
f 24/24/24 176/176/176 110/110/110
f 103/103/103 97/97/97 109/109/109
f 106/106/106 103/103/103 109/109/109
f 108/108/108 106/106/106 109/109/109
f 62/62/62 106/106/106 108/108/108
f 64/64/64 106/106/106 62/62/62
f 107/107/107 106/106/106 64/64/64
f 105/105/105 106/106/106 107/107/107
f 104/104/104 106/106/106 105/105/105
f 99/99/99 104/104/104 105/105/105
f 102/102/102 104/104/104 99/99/99
f 94/94/94 97/97/97 103/103/103
f 98/98/98 102/102/102 99/99/99
f 95/95/95 37/37/37 63/63/63
f 95/95/95 36/36/36 37/37/37
f 95/95/95 63/63/63 101/101/101
f 100/100/100 95/95/95 96/96/96
f 36/36/36 95/95/95 100/100/100
f 98/98/98 36/36/36 100/100/100
f 99/99/99 36/36/36 98/98/98
f 95/95/95 97/97/97 94/94/94
f 96/96/96 95/95/95 94/94/94
f 175/175/175 173/173/173 93/93/93
f 55/55/55 56/56/56 92/92/92
f 90/90/90 15/15/15 13/13/13
f 91/91/91 15/15/15 90/90/90
f 172/172/172 16/16/16 14/14/14
f 167/167/167 172/172/172 14/14/14
f 85/85/85 87/87/87 84/84/84
f 86/86/86 85/85/85 84/84/84
f 79/79/79 83/83/83 82/82/82
f 81/81/81 79/79/79 82/82/82
f 78/78/78 79/79/79 81/81/81
f 80/80/80 79/79/79 78/78/78
f 76/76/76 77/77/77 73/73/73
f 74/74/74 76/76/76 73/73/73
f 75/75/75 74/74/74 73/73/73
f 70/70/70 72/72/72 69/69/69
f 71/71/71 70/70/70 69/69/69
f 24/24/24 68/68/68 25/25/25
f 66/66/66 67/67/67 34/34/34
f 65/65/65 66/66/66 34/34/34
f 32/32/32 65/65/65 34/34/34
f 37/37/37 64/64/64 62/62/62
f 63/63/63 37/37/37 62/62/62
f 59/59/59 61/61/61 58/58/58
f 60/60/60 59/59/59 58/58/58
f 57/57/57 56/56/56 55/55/55
f 52/52/52 54/54/54 51/51/51
f 53/53/53 52/52/52 51/51/51
f 49/49/49 50/50/50 48/48/48
f 46/46/46 49/49/49 48/48/48
f 45/45/45 46/46/46 48/48/48
f 47/47/47 46/46/46 45/45/45
f 44/44/44 43/43/43 42/42/42
f 39/39/39 41/41/41 38/38/38
f 40/40/40 39/39/39 38/38/38
f 37/37/37 36/36/36 35/35/35
f 32/32/32 34/34/34 31/31/31
f 33/33/33 32/32/32 31/31/31
f 29/29/29 30/30/30 26/26/26
f 27/27/27 29/29/29 26/26/26
f 28/28/28 27/27/27 26/26/26
f 25/25/25 176/176/176 24/24/24
f 17/17/17 20/20/20 22/22/22
f 23/23/23 17/17/17 22/22/22
f 18/18/18 20/20/20 17/17/17
f 21/21/21 20/20/20 18/18/18
f 19/19/19 18/18/18 17/17/17
f 13/13/13 14/14/14 16/16/16
f 15/15/15 14/14/14 13/13/13
f 10/10/10 12/12/12 9/9/9
f 11/11/11 10/10/10 9/9/9
f 5/5/5 6/6/6 8/8/8
f 7/7/7 6/6/6 5/5/5
f 2/2/2 4/4/4 1/1/1
f 3/3/3 2/2/2 1/1/1
f 157/157/157 158/158/158 160/160/160
f 159/159/159 158/158/158 157/157/157


# End of file
